<?xml version="1.0" encoding="UTF-8"?>
<!DOCTYPE svg PUBLIC "-//W3C//DTD SVG 1.1//EN" "http://www.w3.org/Graphics/SVG/1.1/DTD/svg11.dtd">
<svg xmlns="http://www.w3.org/2000/svg" version="1.1" width="512px" height="512px" style="shape-rendering:geometricPrecision; text-rendering:geometricPrecision; image-rendering:optimizeQuality; fill-rule:evenodd; clip-rule:evenodd" xmlns:xlink="http://www.w3.org/1999/xlink">
<g><path style="opacity:0.999" fill="#fefefe" d="M 40.5,-0.5 C 183.833,-0.5 327.167,-0.5 470.5,-0.5C 491.833,5.5 505.5,19.1667 511.5,40.5C 511.5,183.833 511.5,327.167 511.5,470.5C 505.5,491.833 491.833,505.5 470.5,511.5C 327.167,511.5 183.833,511.5 40.5,511.5C 19.1667,505.5 5.5,491.833 -0.5,470.5C -0.5,327.167 -0.5,183.833 -0.5,40.5C 5.5,19.1667 19.1667,5.5 40.5,-0.5 Z"/></g>
<g><path style="opacity:1" fill="#020202" d="M 410.5,52.5 C 420.405,52.4541 427.405,56.9541 431.5,66C 426.586,79.7409 421.086,93.2409 415,106.5C 391.655,150.856 369.655,195.856 349,241.5C 336.155,270.367 327.155,300.367 322,331.5C 320.668,341.471 320.335,351.471 321,361.5C 322.579,367.41 326.412,370.91 332.5,372C 341.167,372.345 349.834,372.178 358.5,371.5C 363.657,371.292 368.657,371.958 373.5,373.5C 370.486,381.707 366.986,389.707 363,397.5C 361.786,399.049 360.286,400.215 358.5,401C 354.044,401.957 349.711,403.29 345.5,405C 335.156,405.998 325.822,403.331 317.5,397C 305.732,386.89 297.565,374.39 293,359.5C 284.453,329.431 284.453,299.431 293,269.5C 245.833,312 198.667,354.5 151.5,397C 140.861,405.623 129.195,412.623 116.5,418C 105.643,419.656 96.8096,416.156 90,407.5C 81.2957,392.674 77.9624,376.674 80,359.5C 82.8264,339.02 88.4931,319.353 97,300.5C 125.219,233.395 152.886,166.061 180,98.5C 186.874,93.9668 194.374,92.4668 202.5,94C 206.969,97.6051 208.969,102.272 208.5,108C 206.951,124.696 203.118,140.862 197,156.5C 176.857,206.122 154.524,254.789 130,302.5C 120.556,321.834 112.889,341.834 107,362.5C 106.333,365.833 106.333,369.167 107,372.5C 107.465,373.931 108.299,375.097 109.5,376C 115.167,376.891 120.501,375.891 125.5,373C 147.939,358.236 168.939,341.569 188.5,323C 236.305,277.529 283.138,231.029 329,183.5C 333.667,176.167 338.333,168.833 343,161.5C 357.411,133.01 372.078,104.676 387,76.5C 392.848,66.3915 400.682,58.3915 410.5,52.5 Z"/></g>
</svg>
