<?xml version="1.0" standalone="no"?>
<!DOCTYPE svg PUBLIC "-//W3C//DTD SVG 20010904//EN"
 "http://www.w3.org/TR/2001/REC-SVG-20010904/DTD/svg10.dtd">
<svg version="1.0" xmlns="http://www.w3.org/2000/svg"
 width="512.000000pt" height="512.000000pt" viewBox="0 0 512.000000 512.000000"
 preserveAspectRatio="xMidYMid meet">

<g transform="translate(0.000000,512.000000) scale(0.100000,-0.100000)"
fill="#000000" stroke="none">
<path d="M397 5104 c-169 -41 -306 -163 -369 -330 l-23 -59 0 -2150 c0 -2071
1 -2152 19 -2205 52 -154 168 -274 322 -332 l59 -23 2155 0 2155 0 59 23 c154
58 270 178 322 332 18 53 19 134 19 2200 0 2066 -1 2147 -19 2200 -52 154
-162 267 -321 331 l-60 24 -2130 2 c-1801 1 -2139 -1 -2188 -13z m3713 -686
c18 -13 46 -39 63 -60 l29 -36 -22 -59 c-55 -149 -157 -365 -378 -803 -255
-507 -337 -684 -439 -955 -110 -290 -159 -479 -183 -697 -31 -293 -5 -332 218
-329 63 0 118 4 124 7 11 7 108 -4 125 -14 18 -11 -60 -201 -98 -240 -37 -38
-152 -68 -233 -59 -154 16 -306 161 -387 370 -57 149 -73 242 -73 437 -1 167
13 280 51 420 l6 24 -30 -24 c-38 -31 -404 -359 -748 -670 -599 -541 -623
-560 -777 -641 -72 -37 -91 -43 -140 -41 -73 1 -116 22 -168 78 -90 98 -127
232 -116 419 11 206 55 351 230 763 64 150 238 577 386 949 149 371 281 696
293 721 20 42 28 48 87 69 72 26 130 25 160 -2 11 -10 25 -42 32 -73 40 -180
-122 -616 -577 -1552 -249 -513 -345 -748 -361 -882 -5 -45 -3 -57 16 -81 20
-25 27 -28 59 -22 118 22 372 214 761 575 199 184 820 800 1059 1051 232 243
230 240 503 774 181 354 217 418 287 503 80 97 171 127 241 80z"/>
</g>
</svg>
